<svg width="216" height="22" viewBox="0 0 216 22" fill="none" xmlns="http://www.w3.org/2000/svg">
<path d="M15.0156 5.21C14.8156 4.99 14.5256 4.76 14.1456 4.52C13.7656 4.26 13.3156 4.02 12.7956 3.8C12.2756 3.58 11.7156 3.4 11.1156 3.26C10.5156 3.12 9.89563 3.05 9.25563 3.05C7.85563 3.05 6.81563 3.31 6.13563 3.83C5.45563 4.35 5.11563 5.07 5.11563 5.99C5.11563 6.67 5.30563 7.21 5.68563 7.61C6.06563 7.99 6.64563 8.31 7.42563 8.57C8.20563 8.83 9.18563 9.11 10.3656 9.41C11.8056 9.75 13.0556 10.16 14.1156 10.64C15.1756 11.1 15.9856 11.72 16.5456 12.5C17.1056 13.28 17.3856 14.31 17.3856 15.59C17.3856 16.67 17.1856 17.6 16.7856 18.38C16.3856 19.16 15.8256 19.8 15.1056 20.3C14.3856 20.78 13.5556 21.14 12.6156 21.38C11.6756 21.6 10.6656 21.71 9.58563 21.71C8.52563 21.71 7.46563 21.6 6.40563 21.38C5.36563 21.16 4.36563 20.84 3.40563 20.42C2.46563 19.98 1.59562 19.45 0.795625 18.83L2.32563 15.95C2.58563 16.21 2.95563 16.5 3.43563 16.82C3.93563 17.12 4.50563 17.41 5.14563 17.69C5.80563 17.97 6.51563 18.21 7.27563 18.41C8.05563 18.59 8.84563 18.68 9.64563 18.68C10.9856 18.68 12.0056 18.45 12.7056 17.99C13.4256 17.51 13.7856 16.83 13.7856 15.95C13.7856 15.23 13.5556 14.66 13.0956 14.24C12.6356 13.8 11.9656 13.43 11.0856 13.13C10.2056 12.83 9.15563 12.53 7.93562 12.23C6.53563 11.85 5.36563 11.44 4.42562 11C3.48563 10.54 2.77563 9.96 2.29563 9.26C1.83563 8.54 1.60563 7.63 1.60563 6.53C1.60563 5.13 1.94563 3.95 2.62563 2.99C3.30563 2.01 4.22563 1.28 5.38563 0.799998C6.56563 0.299999 7.88563 0.049999 9.34563 0.049999C10.3056 0.049999 11.2156 0.159999 12.0756 0.379998C12.9356 0.579999 13.7356 0.859999 14.4756 1.22C15.2356 1.58 15.9256 1.99 16.5456 2.45L15.0156 5.21ZM38.2455 0.199999V21.5H34.8555V12.11H24.1155V21.5H20.7555V0.199999H24.1155V9.11H34.8555V0.199999H38.2455ZM43.0504 21.5V0.199999H46.4104V21.5H43.0504ZM63.8242 5.21C63.6242 4.99 63.3342 4.76 62.9542 4.52C62.5742 4.26 62.1242 4.02 61.6042 3.8C61.0842 3.58 60.5242 3.4 59.9242 3.26C59.3242 3.12 58.7042 3.05 58.0642 3.05C56.6642 3.05 55.6242 3.31 54.9442 3.83C54.2642 4.35 53.9242 5.07 53.9242 5.99C53.9242 6.67 54.1142 7.21 54.4942 7.61C54.8742 7.99 55.4542 8.31 56.2342 8.57C57.0142 8.83 57.9942 9.11 59.1742 9.41C60.6142 9.75 61.8642 10.16 62.9242 10.64C63.9842 11.1 64.7942 11.72 65.3542 12.5C65.9142 13.28 66.1942 14.31 66.1942 15.59C66.1942 16.67 65.9942 17.6 65.5942 18.38C65.1942 19.16 64.6342 19.8 63.9142 20.3C63.1942 20.78 62.3642 21.14 61.4242 21.38C60.4842 21.6 59.4742 21.71 58.3942 21.71C57.3342 21.71 56.2742 21.6 55.2142 21.38C54.1742 21.16 53.1742 20.84 52.2142 20.42C51.2742 19.98 50.4042 19.45 49.6042 18.83L51.1342 15.95C51.3942 16.21 51.7642 16.5 52.2442 16.82C52.7442 17.12 53.3142 17.41 53.9542 17.69C54.6142 17.97 55.3242 18.21 56.0842 18.41C56.8642 18.59 57.6542 18.68 58.4542 18.68C59.7942 18.68 60.8142 18.45 61.5142 17.99C62.2342 17.51 62.5942 16.83 62.5942 15.95C62.5942 15.23 62.3642 14.66 61.9042 14.24C61.4442 13.8 60.7742 13.43 59.8942 13.13C59.0142 12.83 57.9642 12.53 56.7442 12.23C55.3442 11.85 54.1742 11.44 53.2342 11C52.2942 10.54 51.5842 9.96 51.1042 9.26C50.6442 8.54 50.4142 7.63 50.4142 6.53C50.4142 5.13 50.7542 3.95 51.4342 2.99C52.1142 2.01 53.0342 1.28 54.1942 0.799998C55.3742 0.299999 56.6942 0.049999 58.1542 0.049999C59.1142 0.049999 60.0242 0.159999 60.8842 0.379998C61.7442 0.579999 62.5442 0.859999 63.2842 1.22C64.0442 1.58 64.7342 1.99 65.3542 2.45L63.8242 5.21ZM87.0541 0.199999V21.5H83.6641V12.11H72.9241V21.5H69.5641V0.199999H72.9241V9.11H83.6641V0.199999H87.0541ZM91.859 21.5V0.229998H95.219V11.18L105.239 0.199999H108.959L100.559 9.62L109.439 21.5H105.629L98.429 11.75L95.219 15.08V21.5H91.859ZM111.664 21.5V0.199999H115.024V21.5H111.664ZM123.198 6.44V21.5H119.838V0.199999H122.598L134.658 15.59V0.229998H138.048V21.5H135.108L123.198 6.44ZM150.248 21.5V0.199999H157.808C160.108 0.199999 162.028 0.679999 163.568 1.64C165.108 2.58 166.258 3.86 167.018 5.48C167.798 7.08 168.188 8.86 168.188 10.82C168.188 12.98 167.758 14.86 166.898 16.46C166.058 18.06 164.858 19.3 163.298 20.18C161.738 21.06 159.908 21.5 157.808 21.5H150.248ZM164.768 10.82C164.768 9.32 164.488 8 163.928 6.86C163.388 5.7 162.598 4.8 161.558 4.16C160.538 3.5 159.288 3.17 157.808 3.17H153.608V18.53H157.808C159.308 18.53 160.568 18.19 161.588 17.51C162.628 16.83 163.418 15.91 163.958 14.75C164.498 13.59 164.768 12.28 164.768 10.82ZM180.572 21.65C179.032 21.65 177.642 21.35 176.402 20.75C175.162 20.15 174.092 19.34 173.192 18.32C172.292 17.28 171.592 16.12 171.092 14.84C170.612 13.54 170.372 12.21 170.372 10.85C170.372 9.43 170.632 8.08 171.152 6.8C171.672 5.5 172.392 4.35 173.312 3.35C174.232 2.33 175.312 1.53 176.552 0.949998C177.812 0.349999 179.172 0.049999 180.632 0.049999C182.152 0.049999 183.532 0.359999 184.772 0.98C186.032 1.6 187.102 2.43 187.982 3.47C188.882 4.51 189.572 5.67 190.052 6.95C190.552 8.23 190.802 9.54 190.802 10.88C190.802 12.3 190.542 13.66 190.022 14.96C189.522 16.24 188.812 17.39 187.892 18.41C186.972 19.41 185.882 20.2 184.622 20.78C183.382 21.36 182.032 21.65 180.572 21.65ZM173.792 10.85C173.792 11.85 173.952 12.82 174.272 13.76C174.592 14.7 175.042 15.54 175.622 16.28C176.222 17 176.942 17.57 177.782 17.99C178.622 18.41 179.562 18.62 180.602 18.62C181.682 18.62 182.642 18.4 183.482 17.96C184.322 17.52 185.022 16.93 185.582 16.19C186.162 15.43 186.602 14.59 186.902 13.67C187.202 12.73 187.352 11.79 187.352 10.85C187.352 9.85 187.192 8.89 186.872 7.97C186.572 7.03 186.122 6.2 185.522 5.48C184.922 4.74 184.202 4.16 183.362 3.74C182.542 3.32 181.622 3.11 180.602 3.11C179.522 3.11 178.562 3.33 177.722 3.77C176.882 4.21 176.172 4.8 175.592 5.54C175.012 6.28 174.562 7.11 174.242 8.03C173.942 8.95 173.792 9.89 173.792 10.85ZM212.191 21.5V6.32L205.921 17.84H203.941L197.641 6.32V21.5H194.281V0.199999H197.881L204.931 13.22L211.981 0.199999H215.581V21.5H212.191Z" fill="#2F1804"/>
</svg>
